<svg width="138" height="72" viewBox="0 0 138 72" fill="none" xmlns="http://www.w3.org/2000/svg">
<path d="M4.71652 8.0967V4.74725H12.8466V0.263738H0V18.9363H4.71652V12.5011H11.8304V8.0967H4.71652Z" fill="white"/>
<path d="M20.5643 13.0022L24.8378 18.9363H30.6488L25.6196 12.5275C27.8606 11.8154 29.2417 9.86374 29.2417 6.40879C29.1374 2.03077 26.1929 0.263738 22.3884 0.263738H15.0139V18.9363H19.7305V13.0022H20.5643ZM22.4666 8.94066H19.7305V4.66813H22.4666C25.4111 4.66813 25.4111 8.94066 22.4666 8.94066Z" fill="white"/>
<path d="M31.2644 6.40879V12.7912C31.2644 17.0637 35.095 19.2 38.9255 19.2C42.756 19.2 46.5605 17.0637 46.5605 12.7912V6.40879C46.5605 2.13626 42.73 0 38.8994 0C35.0689 0 31.2644 2.10989 31.2644 6.40879ZM35.9288 12.7912V6.40879C35.9288 5.03736 37.3881 4.2989 38.8473 4.2989C40.3587 4.2989 41.8961 4.95824 41.8961 6.40879V12.7912C41.8961 14.1363 40.4108 14.822 38.9255 14.822C37.4402 14.822 35.9288 14.1626 35.9288 12.7912Z" fill="white"/>
<path d="M49.0371 0.263738V18.9363H53.7015V11.4725L53.1021 7.85934L53.2324 7.83297L54.848 11.578L59.0173 18.9363H63.7338V0.263738H59.0955V8.72967C59.1215 8.72967 59.5906 11.9473 59.6166 11.9473L59.4864 11.9736L57.9229 8.22857L53.4669 0.263738H49.0371Z" fill="white"/>
<path d="M75.1676 4.72088H80.0665V0.237363H65.5522V4.72088H70.4511V18.9363H75.1676V4.72088Z" fill="white"/>
<path d="M88.3341 13.5297V9.04615H80.204V13.5297H88.3341Z" fill="white"/>
<path d="M95.7163 7.59561V4.69451H103.846V0.263738H90.9997V18.9363H103.846V14.4791H95.7163V11.6835H103.195V7.59561H95.7163Z" fill="white"/>
<path d="M106.319 0.263738V18.9363H110.983V11.4725L110.384 7.85934L110.514 7.83297L112.13 11.578L116.299 18.9363H121.016V0.263738H116.377V8.72967C116.404 8.72967 116.873 11.9473 116.899 11.9473L116.768 11.9736L115.205 8.22857L110.749 0.263738H106.319Z" fill="white"/>
<path d="M130.834 0.263738H123.929V18.9363H130.834C134.534 18.9626 138 17.0901 138 12.7912V6.51429C138 2.16264 134.534 0.263738 130.834 0.263738ZM130.99 14.5055H128.619V4.66813H130.99C132.554 4.66813 133.31 5.43297 133.31 6.64616V12.4747C133.31 13.6879 132.58 14.5055 130.99 14.5055Z" fill="white"/>
<path d="M0 26.6374V45.3099H4.6644V39.9297L4.3517 36.1582L4.48199 36.1319L6.95751 42.5407H10.1627L12.5861 36.1319L12.7424 36.1582L12.4558 39.9297L12.4297 45.3099H17.1202V26.6374H12.4558L8.54705 35.7626L4.6644 26.6374H0Z" fill="white"/>
<path d="M35.688 45.3099L29.0953 26.6374H24.8478L18.4115 45.3099H23.4146L24.5612 41.5648H29.4862L30.6848 45.3099H35.688ZM28.3657 37.3714H25.6035L26.9585 31.9121H27.0888L28.3657 37.3714Z" fill="white"/>
<path d="M38.7028 39.4022L35.7582 42.1978C37.4781 44.4396 39.8233 45.5736 42.0382 45.5736C45.4258 45.5736 49.1781 43.5956 49.3345 39.9824C49.5429 35.3934 46.2596 34.233 42.9763 33.6264C41.5431 33.3099 40.579 32.7824 40.5268 31.8857C40.605 29.7231 43.9144 29.644 45.8427 31.7275L48.8915 29.3538C46.9893 27.0066 44.8264 26.3736 42.5854 26.3736C39.1979 26.3736 35.9146 28.2989 35.9146 31.9648C35.9146 35.5253 38.6246 37.4242 41.5952 37.8989C43.1066 38.1099 44.8004 38.7165 44.7483 39.7714C44.618 41.7758 40.5529 41.6703 38.7028 39.4022Z" fill="white"/>
<path d="M59.8738 31.0945H64.7727V26.611H50.2583V31.0945H55.1572V45.3099H59.8738V31.0945Z" fill="white"/>
<path d="M71.3122 33.9692V31.0681H79.4424V26.6374H66.5957V45.3099H79.4424V40.8528H71.3122V38.0571H78.7909V33.9692H71.3122Z" fill="white"/>
<path d="M87.4654 39.3758L91.7389 45.3099H97.5499L92.5207 38.9011C94.7617 38.189 96.1428 36.2374 96.1428 32.7824C96.0385 28.4044 93.094 26.6374 89.2895 26.6374H81.915V45.3099H86.6316V39.3758H87.4654ZM89.3677 35.3143H86.6316V31.0418H89.3677C92.3122 31.0418 92.3122 35.3143 89.3677 35.3143Z" fill="white"/>
<path d="M100.82 39.4022L97.8752 42.1978C99.595 44.4396 101.94 45.5736 104.155 45.5736C107.543 45.5736 111.295 43.5956 111.451 39.9824C111.66 35.3934 108.377 34.233 105.093 33.6264C103.66 33.3099 102.696 32.7824 102.644 31.8857C102.722 29.7231 106.031 29.644 107.96 31.7275L111.008 29.3538C109.106 27.0066 106.943 26.3736 104.702 26.3736C101.315 26.3736 98.0316 28.2989 98.0316 31.9648C98.0316 35.5253 100.742 37.4242 103.712 37.8989C105.224 38.1099 106.917 38.7165 106.865 39.7714C106.735 41.7758 102.67 41.6703 100.82 39.4022Z" fill="white"/>
<path d="M0 53.011V71.6835H12.1952V67.0154H4.69046V53.011H0Z" fill="white"/>
<path d="M18.7635 60.3429V57.4418H26.8936V53.011H14.0469V71.6835H26.8936V67.2264H18.7635V64.4308H26.2421V60.3429H18.7635Z" fill="white"/>
<path d="M45.0272 71.6835L38.4345 53.011H34.187L27.7506 71.6835H32.7538L33.9004 67.9385H38.8253L40.024 71.6835H45.0272ZM37.7048 63.7451H34.9427L36.2977 58.2857H36.428L37.7048 63.7451Z" fill="white"/>
<path d="M55.1346 58.5495L59.0434 56.7297C57.7665 53.7495 55.0304 52.7473 52.6331 52.7473C48.9849 52.7473 45.3368 54.8571 45.3368 59.0769V65.4857C45.3368 69.7846 48.9849 71.9473 52.6331 71.9473C56.3333 71.9473 59.8772 69.7846 59.8772 65.4857V60.844H52.4507V64.8H55.3952V65.4857C55.3952 68.3868 50.0012 68.4132 50.0012 65.4857V59.0769C50.0012 56.6242 54.1184 56.044 55.1346 58.5495Z" fill="white"/>
<path d="M66.6529 65.433V53.011H61.9364V65.433C61.9104 74.189 76.6332 74.189 76.6592 65.433V53.011H71.9427V65.433C71.9167 68.4396 66.6529 68.4396 66.6529 65.433Z" fill="white"/>
<path d="M84.1377 60.3429V57.4418H92.2678V53.011H79.4212V71.6835H92.2678V67.2264H84.1377V64.4308H91.6164V60.3429H84.1377Z" fill="white"/>
</svg>
